<?xml version="1.0" encoding="UTF-8" standalone="no"?>
<svg
   width="192"
   height="128"
   style="enable-background:new 0 0 128 128;"
   version="1.1"
   id="svg14"
   sodipodi:docname="desert-island.svg"
   inkscape:version="1.1.2 (0a00cf5339, 2022-02-04)"
   xmlns:inkscape="http://www.inkscape.org/namespaces/inkscape"
   xmlns:sodipodi="http://sodipodi.sourceforge.net/DTD/sodipodi-0.dtd"
   xmlns="http://www.w3.org/2000/svg"
   xmlns:svg="http://www.w3.org/2000/svg">
  <defs
     id="defs18" />
  <sodipodi:namedview
     id="namedview16"
     pagecolor="#ffffff"
     bordercolor="#666666"
     borderopacity="1.0"
     inkscape:pageshadow="2"
     inkscape:pageopacity="0.0"
     inkscape:pagecheckerboard="0"
     showgrid="false"
     inkscape:zoom="5.6635103"
     inkscape:cx="118.12462"
     inkscape:cy="63.741387"
     inkscape:window-width="1828"
     inkscape:window-height="995"
     inkscape:window-x="84"
     inkscape:window-y="40"
     inkscape:window-maximized="0"
     inkscape:current-layer="svg14" />
  <path
     d="m 2.5,72.93 v -6.22 c 0,0 2.8176616,-4.95 17.591347,-4.95 11.773256,0 11.575259,2.94 26.272791,2.94 13.189702,0 11.377261,-2.94 23.622666,-2.94 14.408151,0 16.66228,3.83 26.577403,3.83 9.915123,0 15.261063,-3.83 25.861563,-3.83 10.6005,0 17.33243,4.24 27.24755,4.24 10.08266,0 12.18448,-4.2 23.53128,-4.2 10.06743,0 15.94645,3.49 15.94645,6.14 0,2.65 0,3.74 0,3.74 z"
     style="fill:#006ca2;stroke-width:1.23412"
     id="path2" />
  <path
     d="m 2.5,112.52 c 0,6.88 8.501098,12.45 18.967504,12.45 H 170.22149 c 10.48164,0 18.9675,-5.58 18.9675,-12.45 V 76.36 68.58 H 2.5 Z"
     style="fill:#006ca2;stroke-width:1.2343"
     id="path4" />
  <path
     d="M17.78,93.26c2.03-16.99,26.85-21.34,31.01-21.85c14.78-1.82,46.63-0.04,55.15,19.17 c2.43,5.47-1.57,10.41-7.83,13.16C80.52,110.57,19.64,108.13,17.78,93.26z"
     style="fill:#EFC77F;"
     id="path6" />
  <path
     d="M51.79,38.45l0.31,0.94c0.03,0.11-0.1,0.25-0.25,0.56c-2.47,5.01-3.74,8.82-4.42,12.68 c-0.22,1.28-0.36,2.66-0.39,3.95c-0.03,1.23-0.13,2.38-0.04,3.61l0.27,3.87c0.19,2.75,0.84,5.48,1.4,8.14 c0.2,0.93,0.54,1.92,0.83,2.82c0.12,0.38,0.16,0.78,0.28,1.16c0.01,0.06,0.04,0.12,0.06,0.18c0.69,1.78,0.63,3.39,0.28,3.82 c-0.6,0.74-1.48,1.3-2.29,1.58c-1.83,0.64-3.95,0.8-5.8,0.14c-1.73-0.62-1.45-2.14-1.85-3.74c-0.24-0.94-0.41-1.98-0.48-2.99 c-0.16-2.33-0.41-4.67-0.36-6.99c0.06-3.01,0.27-6.02,0.69-9.03c0.26-1.87,0.67-3.54,1.05-5.41c0.68-3.44,1.74-6.13,3.28-9.48 c2-4.35,4.37-6.86,4.57-6.79L51.79,38.45z"
     style="fill:#855C52;"
     id="path8" />
  <path
     d="M23.37,47.95c-0.31-3.62,0.32-7.7,2.91-10.43c1.22-1.28,3.11-2.4,4.69-3.15 c4.23-1.99,9.58-2,14.4-0.96c-1.22-0.77-2.46-1.51-3.74-2.12c-1.33-0.64-2.67-1.19-4.07-1.65c-0.36-0.12-0.62-0.13-0.65-0.56 c-0.02-0.22,0.06-0.45,0.12-0.68c0.17-0.72,0.56-1.29,0.87-1.98c0.32-0.73,0.91-1.58,0.68-2.39c-0.36-0.06-1.05,0.57-1.36,0.76 c-0.58,0.35-1.1,0.72-1.64,1.11c-0.46,0.33-0.91,0.65-1.36,1c-0.25,0.2-0.57,0.63-0.87,0.73c-0.51,0.18-1.15-0.29-1.62-0.43 c-0.34-0.11-0.46-0.06-0.38-0.45c0.12-0.66,0.34-1.24,0.49-1.89c0.16-0.68,0.29-1.41,0.09-2.09c-0.51-0.09-1.43,0.96-1.77,1.26 c-0.34,0.29-0.71,0.63-1.01,0.98c-0.25,0.29-0.35,0.78-0.78,0.81c-0.23,0.02-0.47-0.16-0.69-0.21c-0.38-0.08-0.61-0.24-0.97-0.37 c-0.71-0.26-1.46-0.51-2.18-0.72c-0.86-0.25-0.85-0.43-0.42-1.21c0.24-0.44,0.59-0.82,0.9-1.21c0.85-1.04,1.69-1.75,2.79-2.48 c0.4-0.27,0.89-0.37,1.28-0.66c0.36-0.26,0.72-0.4,1.16-0.55c0.94-0.31,1.9-0.56,2.88-0.75c6.22-1.2,12.65,2.33,15.93,7.66 c-0.16-1.54-0.47-3.07-0.71-4.6c-0.08-0.52-0.12-0.99-0.29-1.48c-0.12-0.35-0.51-1.61-0.21-1.84c0.42-0.33,4.29-0.89,3.97-1.36 c-0.32-0.45-1.27-0.46-1.75-0.54c-0.6-0.1-1.2-0.13-1.8-0.27c-0.44-0.1-1.02,0.03-1.41-0.22c-0.3-0.19-0.35-0.64-0.46-0.94 c-0.17-0.43-2.18-5.24-1.78-5.42c0.23-0.1,0.72,0,0.98-0.01c0.39-0.01,0.79,0.07,1.18,0.12c0.54,0.07,1.11,0.13,1.64,0.27 c1.18,0.31,2.35,0.71,3.47,1.22c0.55,0.25,1.09,0.52,1.61,0.83c2.44,1.43,4.41,3.47,5.4,6.21c0.9,2.48,0.4,5.16-0.51,7.58 c1.06-0.96,2.17-1.86,3.35-2.67c3.96-2.69,9.44-2.97,13.86-1.31c1.53,0.58,3.11,1.42,4.43,2.38c1.25,0.92,3.15,2.98,3.7,4.46 c0.11,0.31,0.21,0.62,0.31,0.93c-0.02,0.01-0.05,0.01-0.07,0.02c-0.54,0.13-6.14,1.77-6.33,1.18c-0.14-0.46-0.63-0.85-0.89-1.25 c-0.78-1.16-2.98-3.29-4.62-2.65c-0.01,0.38,0.26,0.6,0.45,0.91c0.3,0.5,0.6,1,0.91,1.49c0.39,0.64,0.78,1.18,0.81,1.95 c-0.68,0.2-1.46,0.25-2.17,0.36c-0.61,0.1-1.21,0.26-1.84,0.28c-0.02,0-0.71-1.37-0.82-1.56c-0.35-0.56-0.82-0.99-1.32-1.41 c-0.27-0.22-0.95-0.8-1.33-0.6c-0.08,0.04,0.68,2.81,0.73,3.01c0.12,0.42,0.32,0.82,0.34,1.26c-1.31,0.59-2.76,0.76-4.14,1.12 c-0.6,0.16-1.2,0.37-1.8,0.59c0.04-0.01,0.07-0.01,0.11-0.01c1.9-0.15,3.82-0.13,5.72,0.13c3.76,0.52,7.55,1.76,10.48,4.19 c2.83,2.34,5.04,7.21,5.3,10.83c0.09,1.37,0.15,1.71,0.11,3.09c-0.03,0.87-0.02,1.92-0.38,2.74c-0.14,0.32-0.61,1.66-1.12,1.38 c-0.37-0.2-0.63-0.69-0.93-0.98c-0.8-0.8-1.62-1.57-2.41-2.37c-0.36-0.36-1.55-1.18-1.43-1.74c0.14-0.64,0.09-1.35,0.06-1.99 c-0.04-0.94-0.13-1.88-0.36-2.79c-0.1-0.39-0.21-0.79-0.41-1.15c-0.08-0.16-0.5-0.76-0.71-0.65c-0.1,0.05-0.04,0.53-0.03,0.62 c0.01,0.37,0.04,0.74,0.07,1.11c0.03,0.44,0.1,0.87,0.08,1.31c-0.03,0.53-0.13,1.06-0.2,1.59c-0.04,0.29-0.09,0.71-0.31,0.93 c-0.25,0.26-0.6-0.06-0.81-0.21c-0.57-0.41-1.15-0.85-1.69-1.28c-0.23-0.19-0.42-0.44-0.65-0.64c-0.07-0.06-0.21-0.11-0.26-0.18 c-0.1-0.14-0.02-0.5-0.01-0.66c0.02-0.3,0.08-0.6,0.09-0.91c0.01-0.65-0.13-1.27-0.3-1.89c-0.1-0.38-0.18-1.4-0.57-1.59 c-0.3-0.15-0.17,0.28-0.14,0.44c0.13,0.8,0.07,1.59-0.06,2.39c-0.06,0.33-0.09,0.74-0.28,1.03c-0.26,0.4-0.63,0.02-0.92-0.17 c-0.9-0.59-1.79-1.19-2.7-1.78c-0.19-0.13-0.38-0.25-0.58-0.37c-0.41-0.24-0.83-0.47-1.24-0.71c1,1.09,1.85,2.31,2.45,3.66 c0.72,1.61,1.33,3.77,1.34,5.54c0.01,1.61-0.28,3.48-0.95,4.97c-0.53,1.16-1.51,2.49-2.56,3.23c-0.7,0.49-1.79-1.65-2.01-2.04 c-0.35-0.61-0.63-1.26-1.01-1.85c-0.3-0.47-1.04-1.29-0.8-1.89c0.1-0.26,0.26-0.5,0.36-0.79c0.56-1.58,1.41-3.05,0.93-4.8 c-0.2,0.08-0.35,0.45-0.43,0.66c-0.19,0.48-0.35,0.99-0.58,1.46c-0.23,0.46-0.36,0.97-0.67,1.4c-0.2,0.29-0.35,0.65-0.65,0.85 c-0.4,0.27-0.57-0.24-0.7-0.52c-0.23-0.5-0.6-0.9-0.89-1.37c-0.27-0.43-0.61-0.83-0.89-1.27c-0.26-0.4-0.74-0.87-0.73-1.38 c0-0.28,0.23-0.55,0.31-0.82c0.11-0.39,0.23-0.79,0.32-1.19c0.07-0.31,0.12-0.64,0.15-0.95c0.02-0.17-0.04-0.49,0.04-0.6 c-0.13,0.31-0.55,0.62-0.76,0.89c-0.19,0.25-0.83,1.31-1.23,1.15c-0.56-0.23-0.82-0.92-1.13-1.39c-0.42-0.65-0.91-1.23-1.3-1.88 c-0.49-0.84-1.16-1.46-1.81-2.16c-0.45-0.49-0.97-0.89-1.41-1.38c-0.25-0.28-0.82-0.72-0.99-1.07c-2.29,0.96-4.68,1.8-6.89,2.94 c-0.89,0.45-1.74,0.98-2.61,1.47c-0.63,0.35-1.33,0.53-1.99,0.86c-0.37,0.19-0.76,0.58-1.1,0.15c-0.24-0.31-0.36-0.73-0.6-1.06 c-0.31-0.43-0.51-0.89-0.71-1.38c-0.16-0.37-0.24-0.81-0.45-1.15c-0.14-0.21-0.37-0.73-0.59-0.86c-0.47-0.26-0.44,0.47-0.49,0.83 c-0.15,1.2,0.14,2.5,0.36,3.67c0.1,0.54,0.39,1.05,0.41,1.6c-0.25,0.04-0.47,0.26-0.69,0.37c-0.36,0.19-0.75,0.33-1.13,0.49 c-0.23,0.09-0.65,0.38-0.87,0.39c-0.3,0.01-0.31-0.25-0.51-0.47c-0.5-0.55-0.89-1.21-1.25-1.87c-0.46-0.83-0.68-1.79-1.27-2.54 c-0.02-0.03-0.23,0.78-0.24,0.86c-0.09,0.55-0.14,0.98-0.13,1.53c0.01,0.27-0.03,0.56-0.03,0.83c0,0.45,0.08,0.9,0.15,1.36 c0.12,0.76,0.33,1.56,0.36,2.33c-0.55,0.17-0.99,0.68-1.5,0.94c-0.38,0.2-3.56,2-3.55,2.1c-0.04-0.31-0.25-0.62-0.32-0.93 c-0.1-0.4-0.21-0.79-0.36-1.18C23.49,49.91,23.45,48.89,23.37,47.95"
     style="fill:#757F3F;"
     id="path10" />
  <path
     d="M13.75,105.25c-1.83-1.68-0.25-12.34,15.35-4.43c8.3,4.21,19.19-5.12,26.68-3.82 c7.48,1.3,5.65,5.25,12.32,5.54c6.67,0.28,12.4-7.59,18.52-4.38c6.11,3.21,11.63,3.5,13.56,0.63c4.53-6.74,7.98-5.93,12.81-5.73 c4.83,0.2,2.7,5.36,2.7,5.36s-7.38,18.65-49.61,13.94C23.85,107.63,13.75,105.25,13.75,105.25z"
     style="fill:#006CA2;"
     id="path12" />
  <text
     xml:space="preserve"
     style="font-style:normal;font-variant:normal;font-weight:bold;font-stretch:normal;font-size:61.3333px;line-height:1.25;font-family:'Comic Sans MS';-inkscape-font-specification:'Comic Sans MS, Bold';font-variant-ligatures:normal;font-variant-caps:normal;font-variant-numeric:normal;font-variant-east-asian:normal;fill:#fa7921;fill-opacity:1;stroke:none"
     x="79.025421"
     y="52.796738"
     id="text5588"><tspan
       sodipodi:role="line"
       id="tspan5586"
       x="79.025421"
       y="52.796738">404</tspan></text>
  <text
     xml:space="preserve"
     style="font-style:normal;font-variant:normal;font-weight:bold;font-stretch:normal;font-size:8.00001px;line-height:1.25;font-family:sans-serif;-inkscape-font-specification:'sans-serif, Bold';font-variant-ligatures:normal;font-variant-caps:normal;font-variant-numeric:normal;font-variant-east-asian:normal;fill:#ffffff;fill-opacity:1;stroke:none;stroke-width:1"
     x="108.6136"
     y="99.897118"
     id="text31128"><tspan
       sodipodi:role="line"
       id="tspan49799"
       x="108.6136"
       y="99.897118">Došlo je do greške!</tspan></text>
  <text
     xml:space="preserve"
     style="font-style:normal;font-variant:normal;font-weight:bold;font-stretch:normal;font-size:6.66667px;line-height:1.25;font-family:sans-serif;-inkscape-font-specification:'sans-serif, Bold';font-variant-ligatures:normal;font-variant-caps:normal;font-variant-numeric:normal;font-variant-east-asian:normal;fill:#ffffff;fill-opacity:1;stroke:none"
     x="73.111206"
     y="112.18863"
     id="text31128-1"><tspan
       sodipodi:role="line"
       id="tspan49819"
       x="73.111206"
       y="112.18863">Stranica koju ste tražili ne postoji.</tspan></text>
</svg>
