<svg width="412.9258257897014" height="283.9300048828125" viewBox="0 0 350.00000000000006 240.66187073412854" class="css-1j8o68f"><defs id="SvgjsDefs1100"></defs><g id="SvgjsG1101" featurekey="rDwwlG-0" transform="matrix(1.7064220905303955,0,0,1.7064220905303955,91.07254136102704,-19.48438193521557)" fill="#ffb400"><g xmlns="http://www.w3.org/2000/svg"><g><path d="M65.542,60.073c-1.841-3.282-6.929-2.842-10.165-2.917c-4.258-0.099-9.354,1.929-12.999,4.263    c-0.134-0.17-0.304-0.323-0.55-0.414c-5.807-2.123-11.773-3.736-17.826-4.969c-2.381-0.485-7.965-1.527-9.362,1.487    c-2.483,5.354,7.499,7.965,11.222,10.799c-2.672,1.091-5.213,2.23-7.636,3.889c-0.062,0.041-0.094,0.093-0.141,0.139    c-2.338-2.505-6.496-6.15-9.462-3.762c-0.87,0.699-0.303,2.063,0.032,2.833c0.332,0.764,1.603,1.678,2.17,2.319    c1.849,2.084-0.323,2.541-0.735,3.858c-1.46,4.668,3.802,5.386,7.137,5.036c2.424-0.254,4.783-1.034,7.127-1.669    c2.253-0.611,4.561-1.149,6.863-1.699c2.98-0.554,5.947-1.182,8.892-1.909c0.996,1.739,2.334,3.202,3.528,4.832    c1.11,1.513,2.154,3.024,3.498,4.342c1.66,1.626,4.247,2.467,6.009,0.604c3.059-3.232,2.062-10.453,1.172-14.624    c2.062-1.055,3.989-2.329,5.541-3.865c1.229-0.988,2.483-1.948,3.644-3.028c1.063-0.99,2.853-2.171,2.778-3.866    C66.254,61.21,65.974,60.53,65.542,60.073z"></path><path d="M76.665,20.08C65.221,9.113,46.552,9.25,33.292,16.629c-10.395,5.786-22.669,24.718-15.236,36.531    c0.495,0.787,1.876,0.286,1.551-0.653c-2.394-6.862-1.023-13.748,2.362-19.723c0.284,0.708,0.64,1.295,1.056,1.85    c1.029,2.055,2.429,3.98,3.523,5.96c0.133,0.243,0.243,0.477,0.362,0.714c0.681,1.92,1.212,3.833,1.218,4.62    c0.01,1.742,0.332,4.248-1.698,5.288c-0.486,0.249-1.15,0.468-1.528,0.891c-0.169,0.188-0.306,0.357-0.417,0.522    c-0.845,0.559-1.2,2.184,0.195,2.434c3.023,0.54,5.995,1.56,8.961,2.365c1.659,0.451,4.638,1.864,6.027,0.316    c0.2-0.223,0.359-0.542,0.37-0.858c0.236,0.217,0.322,0.483,0.173,0.817c-0.437,0.976,0.914,1.828,1.465,0.856    c1.179-2.086,0.378-3.201-0.91-3.839c0.099-0.436,0.06-0.927-0.206-1.442c-1.702-3.308-4.463-5.932-6.391-9.126    C37.17,40.714,45.89,33.361,46.292,33.21c4.826-1.822,13.367-5.813,11.113-12.453c-1.485-4.382-10.427-4.907-15.68-4.584    c11.749-3.943,25.469-0.604,34.263,7.836c1.786,1.713,3.381,3.606,4.79,5.617c-0.113-0.222-0.441-0.329-0.642-0.118    c-0.977,1.034-1.638,2.126-1.752,3.6c-0.186,2.384,0.853,5.613-1.11,7.411c-1.576,1.443-1.362,3.476-0.584,5.296    c0.771,1.796,1.873,3.462,4.01,2.924c1.77-0.446,1.254-2.628,1.197-4.293c0.093,0.257,0.192,0.512,0.339,0.742    c0.24,0.381,0.766,0.489,1.207,0.378c0.181,0.184,0.47,0.247,0.716,0.104c0.751-0.431,0.661-1.352,1.204-1.92    c0.632-0.66,1.155-0.139,1.46,0.477c0.104,0.649,0.182,1.302,0.245,1.956c-0.108-0.058-0.247-0.06-0.334,0.046    c-0.345,0.416-0.697,0.377-1.15,0.559c-0.067,0.027-0.113,0.08-0.159,0.129c-0.324-0.057-0.445,0.035-0.963,0.394    c-0.37,0.256-0.509,0.952,0,1.172c2.331,1.008-0.373,0.982-1.328,0.868c-1.513-0.181-2.97,0.023-4.446,0.327    c-1.755,0.36-3.728,1.924-3.847,3.843c-0.123,1.944,0.145,3.146,0.813,5.017c0.164,0.458,0.286,0.906,0.378,1.347    c-0.783,2.734-1.884,5.731-2.12,8.541c-0.037,0.061-0.07,0.122-0.108,0.182c-1.162,1.854-2.272,4.117-0.432,5.794    c0.618,0.564,1.832,0.026,1.505-0.876c-0.003-0.01-0.005-0.021-0.008-0.032c0.048,0.083,0.082,0.171,0.135,0.254    c0.066,0.103,0.144,0.181,0.225,0.254c-3.191,2.485-6.93,4.184-11.117,4.638c-1.643,0.179-1.72,2.695,0,2.623    c12.506-0.526,20.529-10.153,24.323-21.355C93.407,45.222,87.403,30.372,76.665,20.08z M78.357,46.324    c0.925,0.276,2.089-0.06,2.443-1.107c0.009,0.231,0.024,0.464,0.028,0.674C79.639,46.885,78.819,47.022,78.357,46.324z"></path></g></g></g><g id="SvgjsG1102" featurekey="4AZ1rv-0" transform="matrix(4.674145698547363,0,0,4.674145698547363,0.09348290732233282,124.54433734966766)" fill="#f6f6f6"><path d="M-0.02 20 l4.94 -13.22 l2.68 0 l5.46 13.22 l-3.4 0 l-0.9 -2.22 l-4.8 0 l-0.78 2.22 l-3.2 0 z M5.68 13 l-0.72 1.98 l2.66 0 l-0.8 -2.02 c-0.14 -0.34 -0.38 -1.02 -0.6 -1.72 c-0.22 0.74 -0.42 1.42 -0.54 1.76 z M13.620000000000001 13.84 c0 -2.14 1.58 -3.46 4.5 -3.46 c0.94 0 1.74 0.14 2.4 0.42 c0.22 -0.28 0.3 -0.5 0.3 -1.1 l0 -1.14 l2.46 0.38 c0.06 0.36 0.08 0.66 0.08 0.86 c0 0.82 -0.34 1.52 -1.42 2.04 c0.38 0.5 0.6 1.16 0.6 1.92 c0 2.2 -1.66 3.5 -4.52 3.5 c-0.66 0 -1.24 -0.06 -1.76 -0.2 c-0.2 0.16 -0.32 0.34 -0.32 0.52 c0 0.76 1.9 0.7 3.38 0.8 c2.48 0.18 3.94 0.88 3.94 2.92 c0 2.78 -2.68 3.54 -5.1 3.54 c-2.68 0 -4.76 -0.92 -4.76 -2.56 c0 -1.02 0.76 -1.64 1.62 -2.16 c-1 -0.26 -1.62 -0.86 -1.62 -1.74 c0 -0.76 0.48 -1.38 1.34 -2.04 c-0.74 -0.58 -1.12 -1.44 -1.12 -2.5 z M19.220000000000002 20.86 c-1.08 -0.06 -1.48 -0.1 -2.26 -0.18 c-0.7 0.48 -0.88 0.74 -0.88 1.04 c0 0.44 0.38 0.9 2.08 0.9 c1.38 0 2.28 -0.3 2.28 -0.96 c0 -0.46 -0.42 -0.76 -1.22 -0.8 z M18.060000000000002 15.2 c0.82 0 1.24 -0.5 1.24 -1.4 c0 -0.88 -0.42 -1.36 -1.22 -1.36 s-1.22 0.5 -1.22 1.4 c0 0.84 0.36 1.36 1.2 1.36 z M33.18 16.04 l-5.92 0 c0.08 1.34 0.46 1.92 1.76 1.92 c0.8 0 1.28 -0.22 1.42 -0.94 l2.74 0.48 c-0.52 1.74 -1.76 2.78 -4.26 2.78 c-3.12 0 -4.92 -1.62 -4.92 -4.84 c0 -2.6 1.16 -5.06 4.78 -5.06 c2.94 0 4.4 1.62 4.4 4.64 l0 1.02 z M28.660000000000004 12.6 c-0.76 0 -1.2 0.36 -1.36 1.54 l2.6 0 l0 -0.02 c0 -1.1 -0.42 -1.52 -1.24 -1.52 z M34.82 20 l0 -9.34 l2.9 0 l0 1.48 c0.24 -0.56 1.02 -1.76 3.1 -1.76 c1.38 0 2.98 0.56 2.98 3.48 l0 6.14 l-3.12 0 l0 -5.34 c0 -1.1 -0.26 -1.64 -0.9 -1.64 c-1.12 0 -1.68 1.56 -1.84 2.16 l0 4.82 l-3.12 0 z M51.34 16.68 l2.9 0.58 c-0.54 1.78 -1.58 3.02 -4.16 3.02 c-3.24 0 -4.68 -1.82 -4.68 -4.98 c0 -3.7 2.04 -4.92 4.76 -4.92 c2.56 0 4.24 1.22 4.02 3.34 l-3.06 0.62 c0.18 -1.26 -0.44 -1.64 -1 -1.64 c-1.34 0 -1.48 1.44 -1.48 2.78 c0 1.66 0.4 2.48 1.48 2.48 c0.76 0 1.22 -0.48 1.22 -1.28 z M55.52 7.4 c0 -0.96 0.8 -1.74 1.76 -1.74 c0.98 0 1.76 0.78 1.76 1.74 s-0.78 1.76 -1.76 1.76 c-0.96 0 -1.76 -0.8 -1.76 -1.76 z M55.72 20 l0 -9.34 l3.12 0 l0 9.34 l-3.12 0 z M60.720000000000006 7.4 c0 -0.96 0.8 -1.74 1.76 -1.74 c0.98 0 1.76 0.78 1.76 1.74 s-0.78 1.76 -1.76 1.76 c-0.96 0 -1.76 -0.8 -1.76 -1.76 z M58.620000000000005 24.84 l0 -2.74 c1.86 0 2.3 -0.56 2.3 -2.46 l0 -8.98 l3.12 0 l0 8.72 c0 2.66 -0.74 5.56 -5.42 5.46 z M74.86 16.04 l-5.92 0 c0.08 1.34 0.46 1.92 1.76 1.92 c0.8 0 1.28 -0.22 1.42 -0.94 l2.74 0.48 c-0.52 1.74 -1.76 2.78 -4.26 2.78 c-3.12 0 -4.92 -1.62 -4.92 -4.84 c0 -2.6 1.16 -5.06 4.78 -5.06 c2.94 0 4.4 1.62 4.4 4.64 l0 1.02 z M70.34 12.6 c-0.76 0 -1.2 0.36 -1.36 1.54 l2.6 0 l0 -0.02 c0 -1.1 -0.42 -1.52 -1.24 -1.52 z"></path></g></svg>